%TF.GenerationSoftware,KiCad,Pcbnew,(5.1.12-1-g0a0a2da680)-1*%
%TF.CreationDate,2021-11-23T21:30:51+01:00*%
%TF.ProjectId,SMPS,534d5053-2e6b-4696-9361-645f70636258,rev?*%
%TF.SameCoordinates,Original*%
%TF.FileFunction,Copper,L2,Bot*%
%TF.FilePolarity,Positive*%
%FSLAX46Y46*%
G04 Gerber Fmt 4.6, Leading zero omitted, Abs format (unit mm)*
G04 Created by KiCad (PCBNEW (5.1.12-1-g0a0a2da680)-1) date 2021-11-23 21:30:51*
%MOMM*%
%LPD*%
G01*
G04 APERTURE LIST*
%TA.AperFunction,ComponentPad*%
%ADD10C,1.500000*%
%TD*%
%TA.AperFunction,ComponentPad*%
%ADD11R,1.500000X1.500000*%
%TD*%
%TA.AperFunction,ComponentPad*%
%ADD12C,1.800000*%
%TD*%
%TA.AperFunction,ComponentPad*%
%ADD13R,1.800000X1.800000*%
%TD*%
%TA.AperFunction,ComponentPad*%
%ADD14C,1.950000*%
%TD*%
%TA.AperFunction,ComponentPad*%
%ADD15C,2.250000*%
%TD*%
%TA.AperFunction,ComponentPad*%
%ADD16O,1.600000X1.600000*%
%TD*%
%TA.AperFunction,ComponentPad*%
%ADD17R,1.600000X1.600000*%
%TD*%
%TA.AperFunction,ComponentPad*%
%ADD18C,1.200000*%
%TD*%
%TA.AperFunction,ComponentPad*%
%ADD19R,1.200000X1.200000*%
%TD*%
%TA.AperFunction,ComponentPad*%
%ADD20C,1.510000*%
%TD*%
%TA.AperFunction,ViaPad*%
%ADD21C,0.800000*%
%TD*%
%TA.AperFunction,Conductor*%
%ADD22C,0.300000*%
%TD*%
%TA.AperFunction,Conductor*%
%ADD23C,0.250000*%
%TD*%
%TA.AperFunction,Conductor*%
%ADD24C,0.500000*%
%TD*%
%TA.AperFunction,Conductor*%
%ADD25C,0.254000*%
%TD*%
%TA.AperFunction,Conductor*%
%ADD26C,0.100000*%
%TD*%
G04 APERTURE END LIST*
D10*
%TO.P,T1,2*%
%TO.N,N/C*%
X83575000Y-82215000D03*
%TO.P,T1,5*%
X83575000Y-89835000D03*
D11*
%TO.P,T1,1*%
%TO.N,/DClink+*%
X87385000Y-82215000D03*
D10*
%TO.P,T1,6*%
%TO.N,GND_iso*%
X87385000Y-89835000D03*
%TO.P,T1,3*%
%TO.N,Net-(D1-Pad2)*%
X79765000Y-82215000D03*
%TO.P,T1,4*%
%TO.N,Net-(D2-Pad2)*%
X79765000Y-89835000D03*
%TD*%
D12*
%TO.P,J2,2*%
%TO.N,GND_iso*%
X105275000Y-63285000D03*
D13*
%TO.P,J2,1*%
%TO.N,3.3V*%
X105275000Y-65825000D03*
%TD*%
D14*
%TO.P,J1,A3*%
%TO.N,PE*%
X51375000Y-88375000D03*
%TO.P,J1,A2*%
%TO.N,/AC_N*%
X51375000Y-80875000D03*
%TO.P,J1,A1*%
%TO.N,/AC_L*%
X51375000Y-73375000D03*
%TO.P,J1,3*%
%TO.N,PE*%
X56375000Y-88375000D03*
%TO.P,J1,2*%
%TO.N,/AC_N*%
X56375000Y-80875000D03*
%TO.P,J1,1*%
%TO.N,/AC_L*%
X56375000Y-73375000D03*
%TD*%
D15*
%TO.P,F1,2*%
%TO.N,/AC_F_L*%
X66950000Y-64950000D03*
%TO.P,F1,1*%
%TO.N,/AC_L*%
X51950000Y-64950000D03*
%TD*%
D10*
%TO.P,C3,2*%
%TO.N,/GND*%
X81275000Y-73125000D03*
D11*
%TO.P,C3,1*%
%TO.N,/DClink+*%
X81275000Y-65625000D03*
%TD*%
D16*
%TO.P,U1,4*%
%TO.N,Net-(D1-Pad2)*%
X89505000Y-78325000D03*
%TO.P,U1,2*%
%TO.N,Net-(C6-Pad1)*%
X97125000Y-75785000D03*
%TO.P,U1,3*%
%TO.N,/GND*%
X89505000Y-75785000D03*
D17*
%TO.P,U1,1*%
%TO.N,Net-(R2-Pad2)*%
X97125000Y-78325000D03*
%TD*%
D18*
%TO.P,C5,2*%
%TO.N,Net-(C5-Pad2)*%
X69950000Y-81575000D03*
D19*
%TO.P,C5,1*%
%TO.N,/DClink+*%
X62450000Y-81575000D03*
%TD*%
D20*
%TO.P,BR1,4*%
%TO.N,/AC_F_L*%
X63626000Y-77400000D03*
%TO.P,BR1,3*%
%TO.N,/GND*%
X68726000Y-77400000D03*
%TO.P,BR1,2*%
%TO.N,/AC_N*%
X68726000Y-72300000D03*
%TO.P,BR1,1*%
%TO.N,/DClink+*%
X63626000Y-72300000D03*
%TD*%
D21*
%TO.N,GND_iso*%
X99850000Y-83375000D03*
%TO.N,3.3V*%
X103875000Y-75650000D03*
%TO.N,Net-(C7-Pad1)*%
X102800000Y-79025000D03*
X93900000Y-65925000D03*
%TO.N,Net-(R2-Pad2)*%
X94500000Y-73925000D03*
%TO.N,/GND*%
X60750000Y-84600000D03*
%TD*%
D22*
%TO.N,GND_iso*%
X93390000Y-89835000D02*
X99850000Y-83375000D01*
X87385000Y-89835000D02*
X93390000Y-89835000D01*
%TO.N,3.3V*%
X105275000Y-65825000D02*
X105275000Y-74275000D01*
X103900000Y-75650000D02*
X103875000Y-75650000D01*
X105275000Y-74275000D02*
X103900000Y-75650000D01*
D23*
%TO.N,Net-(C7-Pad1)*%
X102800000Y-79025000D02*
X99700000Y-75925000D01*
X99700000Y-71725000D02*
X93900000Y-65925000D01*
X99700000Y-75925000D02*
X99700000Y-71725000D01*
D24*
%TO.N,PE*%
X51375000Y-88375000D02*
X48375000Y-88375000D01*
X48375000Y-88375000D02*
X48000000Y-88750000D01*
X48000000Y-88750000D02*
X48000000Y-90000000D01*
X48000000Y-90000000D02*
X49000000Y-91000000D01*
D23*
%TO.N,Net-(R2-Pad2)*%
X97125000Y-78325000D02*
X97125000Y-77775000D01*
X94500000Y-75150000D02*
X94500000Y-73925000D01*
X97125000Y-77775000D02*
X94500000Y-75150000D01*
%TO.N,/GND*%
X68726000Y-77400000D02*
X68726000Y-79374000D01*
X68726000Y-79374000D02*
X63500000Y-84600000D01*
X63500000Y-84600000D02*
X60750000Y-84600000D01*
D22*
%TO.N,/DClink+*%
X87385000Y-82215000D02*
X87385000Y-81460000D01*
X87385000Y-81460000D02*
X83425000Y-77500000D01*
X83425000Y-77500000D02*
X78700000Y-77500000D01*
X78700000Y-77500000D02*
X76500000Y-75300000D01*
X76500000Y-70400000D02*
X81275000Y-65625000D01*
X76500000Y-75300000D02*
X76500000Y-70400000D01*
D24*
%TO.N,/AC_N*%
X68726000Y-72300000D02*
X67375000Y-72300000D01*
X67375000Y-72300000D02*
X64875000Y-74800000D01*
X64875000Y-74800000D02*
X60975000Y-74800000D01*
X56375000Y-79400000D02*
X56375000Y-80875000D01*
X60975000Y-74800000D02*
X56375000Y-79400000D01*
X51375000Y-80875000D02*
X56375000Y-80875000D01*
%TD*%
D25*
%TO.N,PE*%
X108480000Y-91455000D02*
X47300000Y-91455000D01*
X47300000Y-62000423D01*
X48779707Y-62000423D01*
X48873001Y-90000423D01*
X48875524Y-90025191D01*
X48882830Y-90048991D01*
X48894639Y-90070909D01*
X48910497Y-90090101D01*
X48929795Y-90105831D01*
X48951790Y-90117494D01*
X48975639Y-90124642D01*
X49000000Y-90127000D01*
X78410949Y-90127000D01*
X78433225Y-90238989D01*
X78537629Y-90491043D01*
X78689201Y-90717886D01*
X78882114Y-90910799D01*
X79108957Y-91062371D01*
X79361011Y-91166775D01*
X79628589Y-91220000D01*
X79901411Y-91220000D01*
X80168989Y-91166775D01*
X80421043Y-91062371D01*
X80647886Y-90910799D01*
X80840799Y-90717886D01*
X80992371Y-90491043D01*
X81096775Y-90238989D01*
X81119051Y-90127000D01*
X82220949Y-90127000D01*
X82243225Y-90238989D01*
X82347629Y-90491043D01*
X82499201Y-90717886D01*
X82692114Y-90910799D01*
X82918957Y-91062371D01*
X83171011Y-91166775D01*
X83438589Y-91220000D01*
X83711411Y-91220000D01*
X83978989Y-91166775D01*
X84231043Y-91062371D01*
X84457886Y-90910799D01*
X84650799Y-90717886D01*
X84802371Y-90491043D01*
X84906775Y-90238989D01*
X84929051Y-90127000D01*
X86030949Y-90127000D01*
X86053225Y-90238989D01*
X86157629Y-90491043D01*
X86309201Y-90717886D01*
X86502114Y-90910799D01*
X86728957Y-91062371D01*
X86981011Y-91166775D01*
X87248589Y-91220000D01*
X87521411Y-91220000D01*
X87788989Y-91166775D01*
X88041043Y-91062371D01*
X88267886Y-90910799D01*
X88460799Y-90717886D01*
X88526204Y-90620000D01*
X93351447Y-90620000D01*
X93390000Y-90623797D01*
X93428553Y-90620000D01*
X93428561Y-90620000D01*
X93543887Y-90608641D01*
X93691860Y-90563754D01*
X93828233Y-90490862D01*
X93947764Y-90392764D01*
X93972347Y-90362810D01*
X94208157Y-90127000D01*
X107000000Y-90127000D01*
X107024776Y-90124560D01*
X107048601Y-90117333D01*
X107070557Y-90105597D01*
X107089803Y-90089803D01*
X107105597Y-90070557D01*
X107117333Y-90048601D01*
X107124560Y-90024776D01*
X107127000Y-90000000D01*
X107127000Y-62000000D01*
X107124560Y-61975224D01*
X107117333Y-61951399D01*
X107105597Y-61929443D01*
X107089803Y-61910197D01*
X107070557Y-61894403D01*
X107048601Y-61882667D01*
X107024776Y-61875440D01*
X107000000Y-61873000D01*
X105877278Y-61873000D01*
X105722743Y-61808989D01*
X105426184Y-61750000D01*
X105123816Y-61750000D01*
X104827257Y-61808989D01*
X104672722Y-61873000D01*
X48906706Y-61873000D01*
X48881930Y-61875440D01*
X48858105Y-61882667D01*
X48836149Y-61894403D01*
X48816903Y-61910197D01*
X48801109Y-61929443D01*
X48789373Y-61951399D01*
X48782146Y-61975224D01*
X48779707Y-62000423D01*
X47300000Y-62000423D01*
X47300000Y-60780000D01*
X108480001Y-60780000D01*
X108480000Y-91455000D01*
%TA.AperFunction,Conductor*%
D26*
G36*
X108480000Y-91455000D02*
G01*
X47300000Y-91455000D01*
X47300000Y-62000423D01*
X48779707Y-62000423D01*
X48873001Y-90000423D01*
X48875524Y-90025191D01*
X48882830Y-90048991D01*
X48894639Y-90070909D01*
X48910497Y-90090101D01*
X48929795Y-90105831D01*
X48951790Y-90117494D01*
X48975639Y-90124642D01*
X49000000Y-90127000D01*
X78410949Y-90127000D01*
X78433225Y-90238989D01*
X78537629Y-90491043D01*
X78689201Y-90717886D01*
X78882114Y-90910799D01*
X79108957Y-91062371D01*
X79361011Y-91166775D01*
X79628589Y-91220000D01*
X79901411Y-91220000D01*
X80168989Y-91166775D01*
X80421043Y-91062371D01*
X80647886Y-90910799D01*
X80840799Y-90717886D01*
X80992371Y-90491043D01*
X81096775Y-90238989D01*
X81119051Y-90127000D01*
X82220949Y-90127000D01*
X82243225Y-90238989D01*
X82347629Y-90491043D01*
X82499201Y-90717886D01*
X82692114Y-90910799D01*
X82918957Y-91062371D01*
X83171011Y-91166775D01*
X83438589Y-91220000D01*
X83711411Y-91220000D01*
X83978989Y-91166775D01*
X84231043Y-91062371D01*
X84457886Y-90910799D01*
X84650799Y-90717886D01*
X84802371Y-90491043D01*
X84906775Y-90238989D01*
X84929051Y-90127000D01*
X86030949Y-90127000D01*
X86053225Y-90238989D01*
X86157629Y-90491043D01*
X86309201Y-90717886D01*
X86502114Y-90910799D01*
X86728957Y-91062371D01*
X86981011Y-91166775D01*
X87248589Y-91220000D01*
X87521411Y-91220000D01*
X87788989Y-91166775D01*
X88041043Y-91062371D01*
X88267886Y-90910799D01*
X88460799Y-90717886D01*
X88526204Y-90620000D01*
X93351447Y-90620000D01*
X93390000Y-90623797D01*
X93428553Y-90620000D01*
X93428561Y-90620000D01*
X93543887Y-90608641D01*
X93691860Y-90563754D01*
X93828233Y-90490862D01*
X93947764Y-90392764D01*
X93972347Y-90362810D01*
X94208157Y-90127000D01*
X107000000Y-90127000D01*
X107024776Y-90124560D01*
X107048601Y-90117333D01*
X107070557Y-90105597D01*
X107089803Y-90089803D01*
X107105597Y-90070557D01*
X107117333Y-90048601D01*
X107124560Y-90024776D01*
X107127000Y-90000000D01*
X107127000Y-62000000D01*
X107124560Y-61975224D01*
X107117333Y-61951399D01*
X107105597Y-61929443D01*
X107089803Y-61910197D01*
X107070557Y-61894403D01*
X107048601Y-61882667D01*
X107024776Y-61875440D01*
X107000000Y-61873000D01*
X105877278Y-61873000D01*
X105722743Y-61808989D01*
X105426184Y-61750000D01*
X105123816Y-61750000D01*
X104827257Y-61808989D01*
X104672722Y-61873000D01*
X48906706Y-61873000D01*
X48881930Y-61875440D01*
X48858105Y-61882667D01*
X48836149Y-61894403D01*
X48816903Y-61910197D01*
X48801109Y-61929443D01*
X48789373Y-61951399D01*
X48782146Y-61975224D01*
X48779707Y-62000423D01*
X47300000Y-62000423D01*
X47300000Y-60780000D01*
X108480001Y-60780000D01*
X108480000Y-91455000D01*
G37*
%TD.AperFunction*%
%TD*%
D25*
%TO.N,GND_iso*%
X105873000Y-64286928D02*
X104375000Y-64286928D01*
X104250518Y-64299188D01*
X104130820Y-64335498D01*
X104020506Y-64394463D01*
X103923815Y-64473815D01*
X103844463Y-64570506D01*
X103785498Y-64680820D01*
X103749188Y-64800518D01*
X103736928Y-64925000D01*
X103736928Y-66725000D01*
X103749188Y-66849482D01*
X103785498Y-66969180D01*
X103844463Y-67079494D01*
X103923815Y-67176185D01*
X104020506Y-67255537D01*
X104130820Y-67314502D01*
X104250518Y-67350812D01*
X104375000Y-67363072D01*
X104490000Y-67363072D01*
X104490001Y-73949842D01*
X103824843Y-74615000D01*
X103773061Y-74615000D01*
X103573102Y-74654774D01*
X103384744Y-74732795D01*
X103215226Y-74846063D01*
X103071063Y-74990226D01*
X102957795Y-75159744D01*
X102879774Y-75348102D01*
X102840000Y-75548061D01*
X102840000Y-75751939D01*
X102879774Y-75951898D01*
X102957795Y-76140256D01*
X103071063Y-76309774D01*
X103215226Y-76453937D01*
X103384744Y-76567205D01*
X103573102Y-76645226D01*
X103773061Y-76685000D01*
X103976939Y-76685000D01*
X104176898Y-76645226D01*
X104365256Y-76567205D01*
X104534774Y-76453937D01*
X104678937Y-76309774D01*
X104792205Y-76140256D01*
X104870226Y-75951898D01*
X104910000Y-75751939D01*
X104910000Y-75750157D01*
X105802810Y-74857347D01*
X105832764Y-74832764D01*
X105873000Y-74783737D01*
X105873000Y-88874597D01*
X86377000Y-89121382D01*
X86377000Y-86660000D01*
X86984241Y-86660000D01*
X87033369Y-86662352D01*
X87081205Y-86655195D01*
X87129383Y-86650450D01*
X87145404Y-86645590D01*
X87161946Y-86643115D01*
X87207471Y-86626762D01*
X87253793Y-86612710D01*
X87268554Y-86604820D01*
X87284300Y-86599164D01*
X87325762Y-86574242D01*
X87368450Y-86551425D01*
X87406500Y-86520198D01*
X91254427Y-83658920D01*
X91268449Y-83651425D01*
X91306481Y-83620213D01*
X91319838Y-83610281D01*
X91331547Y-83599642D01*
X91368948Y-83568948D01*
X91379562Y-83556015D01*
X91391950Y-83544759D01*
X91420726Y-83505857D01*
X91451425Y-83468450D01*
X91459316Y-83453686D01*
X91469264Y-83440238D01*
X91489892Y-83396483D01*
X91512710Y-83353793D01*
X91517569Y-83337775D01*
X91524703Y-83322643D01*
X91536398Y-83275706D01*
X91550450Y-83229383D01*
X91552091Y-83212722D01*
X91556135Y-83196491D01*
X91558448Y-83148177D01*
X91560000Y-83132419D01*
X91560000Y-83115759D01*
X91562352Y-83066631D01*
X91560000Y-83050911D01*
X91560000Y-81110599D01*
X92774741Y-79400964D01*
X92801425Y-79368450D01*
X92827598Y-79319483D01*
X92855173Y-79271276D01*
X92858208Y-79262216D01*
X92862710Y-79253793D01*
X92878834Y-79200641D01*
X92896467Y-79148000D01*
X92897675Y-79138531D01*
X92900450Y-79129383D01*
X92905896Y-79074090D01*
X92912919Y-79019037D01*
X92910000Y-78977084D01*
X92910000Y-75282412D01*
X92913192Y-75250000D01*
X92910000Y-75217588D01*
X92910000Y-75217581D01*
X92900450Y-75120617D01*
X92862710Y-74996207D01*
X92801425Y-74881550D01*
X92781896Y-74857754D01*
X92739614Y-74806233D01*
X92739612Y-74806231D01*
X92718948Y-74781052D01*
X92693769Y-74760388D01*
X91756442Y-73823061D01*
X93465000Y-73823061D01*
X93465000Y-74026939D01*
X93504774Y-74226898D01*
X93582795Y-74415256D01*
X93696063Y-74584774D01*
X93740000Y-74628711D01*
X93740000Y-75112677D01*
X93736324Y-75150000D01*
X93740000Y-75187322D01*
X93740000Y-75187332D01*
X93750997Y-75298985D01*
X93777089Y-75384999D01*
X93794454Y-75442246D01*
X93865026Y-75574276D01*
X93901279Y-75618450D01*
X93959999Y-75690001D01*
X93989003Y-75713804D01*
X95697084Y-77421885D01*
X95686928Y-77525000D01*
X95686928Y-79125000D01*
X95699188Y-79249482D01*
X95735498Y-79369180D01*
X95794463Y-79479494D01*
X95873815Y-79576185D01*
X95970506Y-79655537D01*
X96080820Y-79714502D01*
X96200518Y-79750812D01*
X96325000Y-79763072D01*
X97925000Y-79763072D01*
X98049482Y-79750812D01*
X98169180Y-79714502D01*
X98279494Y-79655537D01*
X98376185Y-79576185D01*
X98455537Y-79479494D01*
X98514502Y-79369180D01*
X98550812Y-79249482D01*
X98563072Y-79125000D01*
X98563072Y-77525000D01*
X98550812Y-77400518D01*
X98514502Y-77280820D01*
X98455537Y-77170506D01*
X98376185Y-77073815D01*
X98279494Y-76994463D01*
X98169180Y-76935498D01*
X98049482Y-76899188D01*
X98041039Y-76898357D01*
X98239637Y-76699759D01*
X98396680Y-76464727D01*
X98504853Y-76203574D01*
X98560000Y-75926335D01*
X98560000Y-75643665D01*
X98504853Y-75366426D01*
X98396680Y-75105273D01*
X98239637Y-74870241D01*
X98039759Y-74670363D01*
X97804727Y-74513320D01*
X97543574Y-74405147D01*
X97266335Y-74350000D01*
X96983665Y-74350000D01*
X96706426Y-74405147D01*
X96445273Y-74513320D01*
X96210241Y-74670363D01*
X96010363Y-74870241D01*
X95853320Y-75105273D01*
X95758644Y-75333842D01*
X95260000Y-74835199D01*
X95260000Y-74628711D01*
X95303937Y-74584774D01*
X95417205Y-74415256D01*
X95495226Y-74226898D01*
X95535000Y-74026939D01*
X95535000Y-73823061D01*
X95495226Y-73623102D01*
X95417205Y-73434744D01*
X95303937Y-73265226D01*
X95159774Y-73121063D01*
X94990256Y-73007795D01*
X94801898Y-72929774D01*
X94601939Y-72890000D01*
X94398061Y-72890000D01*
X94198102Y-72929774D01*
X94009744Y-73007795D01*
X93840226Y-73121063D01*
X93696063Y-73265226D01*
X93582795Y-73434744D01*
X93504774Y-73623102D01*
X93465000Y-73823061D01*
X91756442Y-73823061D01*
X90660000Y-72726620D01*
X90660000Y-67717581D01*
X90656802Y-67685110D01*
X90656802Y-67678617D01*
X90655838Y-67669453D01*
X90651095Y-67627169D01*
X90650450Y-67620617D01*
X90650308Y-67620148D01*
X90644961Y-67572478D01*
X90632528Y-67513984D01*
X90620905Y-67455284D01*
X90618180Y-67446481D01*
X90588674Y-67353465D01*
X90565118Y-67298505D01*
X90542314Y-67243178D01*
X90537931Y-67235072D01*
X90490920Y-67149559D01*
X90457128Y-67100208D01*
X90424018Y-67050374D01*
X90418144Y-67043274D01*
X90355419Y-66968522D01*
X90312706Y-66926695D01*
X90299873Y-66913772D01*
X90326475Y-65823061D01*
X92865000Y-65823061D01*
X92865000Y-66026939D01*
X92904774Y-66226898D01*
X92982795Y-66415256D01*
X93096063Y-66584774D01*
X93240226Y-66728937D01*
X93409744Y-66842205D01*
X93598102Y-66920226D01*
X93798061Y-66960000D01*
X93860199Y-66960000D01*
X98940001Y-72039803D01*
X98940000Y-75887677D01*
X98936324Y-75925000D01*
X98940000Y-75962322D01*
X98940000Y-75962332D01*
X98950997Y-76073985D01*
X98971100Y-76140256D01*
X98994454Y-76217246D01*
X99065026Y-76349276D01*
X99104871Y-76397826D01*
X99159999Y-76465001D01*
X99189003Y-76488804D01*
X101765000Y-79064802D01*
X101765000Y-79126939D01*
X101804774Y-79326898D01*
X101882795Y-79515256D01*
X101996063Y-79684774D01*
X102140226Y-79828937D01*
X102309744Y-79942205D01*
X102498102Y-80020226D01*
X102698061Y-80060000D01*
X102901939Y-80060000D01*
X103101898Y-80020226D01*
X103290256Y-79942205D01*
X103459774Y-79828937D01*
X103603937Y-79684774D01*
X103717205Y-79515256D01*
X103795226Y-79326898D01*
X103835000Y-79126939D01*
X103835000Y-78923061D01*
X103795226Y-78723102D01*
X103717205Y-78534744D01*
X103603937Y-78365226D01*
X103459774Y-78221063D01*
X103290256Y-78107795D01*
X103101898Y-78029774D01*
X102901939Y-77990000D01*
X102839802Y-77990000D01*
X100460000Y-75610199D01*
X100460000Y-71762325D01*
X100463676Y-71725000D01*
X100460000Y-71687675D01*
X100460000Y-71687667D01*
X100449003Y-71576014D01*
X100405546Y-71432753D01*
X100334974Y-71300724D01*
X100240001Y-71184999D01*
X100211003Y-71161201D01*
X94935000Y-65885199D01*
X94935000Y-65823061D01*
X94895226Y-65623102D01*
X94817205Y-65434744D01*
X94703937Y-65265226D01*
X94559774Y-65121063D01*
X94390256Y-65007795D01*
X94201898Y-64929774D01*
X94001939Y-64890000D01*
X93798061Y-64890000D01*
X93598102Y-64929774D01*
X93409744Y-65007795D01*
X93240226Y-65121063D01*
X93096063Y-65265226D01*
X92982795Y-65434744D01*
X92904774Y-65623102D01*
X92865000Y-65823061D01*
X90326475Y-65823061D01*
X90373988Y-63875048D01*
X105873000Y-63629032D01*
X105873000Y-64286928D01*
%TA.AperFunction,Conductor*%
D26*
G36*
X105873000Y-64286928D02*
G01*
X104375000Y-64286928D01*
X104250518Y-64299188D01*
X104130820Y-64335498D01*
X104020506Y-64394463D01*
X103923815Y-64473815D01*
X103844463Y-64570506D01*
X103785498Y-64680820D01*
X103749188Y-64800518D01*
X103736928Y-64925000D01*
X103736928Y-66725000D01*
X103749188Y-66849482D01*
X103785498Y-66969180D01*
X103844463Y-67079494D01*
X103923815Y-67176185D01*
X104020506Y-67255537D01*
X104130820Y-67314502D01*
X104250518Y-67350812D01*
X104375000Y-67363072D01*
X104490000Y-67363072D01*
X104490001Y-73949842D01*
X103824843Y-74615000D01*
X103773061Y-74615000D01*
X103573102Y-74654774D01*
X103384744Y-74732795D01*
X103215226Y-74846063D01*
X103071063Y-74990226D01*
X102957795Y-75159744D01*
X102879774Y-75348102D01*
X102840000Y-75548061D01*
X102840000Y-75751939D01*
X102879774Y-75951898D01*
X102957795Y-76140256D01*
X103071063Y-76309774D01*
X103215226Y-76453937D01*
X103384744Y-76567205D01*
X103573102Y-76645226D01*
X103773061Y-76685000D01*
X103976939Y-76685000D01*
X104176898Y-76645226D01*
X104365256Y-76567205D01*
X104534774Y-76453937D01*
X104678937Y-76309774D01*
X104792205Y-76140256D01*
X104870226Y-75951898D01*
X104910000Y-75751939D01*
X104910000Y-75750157D01*
X105802810Y-74857347D01*
X105832764Y-74832764D01*
X105873000Y-74783737D01*
X105873000Y-88874597D01*
X86377000Y-89121382D01*
X86377000Y-86660000D01*
X86984241Y-86660000D01*
X87033369Y-86662352D01*
X87081205Y-86655195D01*
X87129383Y-86650450D01*
X87145404Y-86645590D01*
X87161946Y-86643115D01*
X87207471Y-86626762D01*
X87253793Y-86612710D01*
X87268554Y-86604820D01*
X87284300Y-86599164D01*
X87325762Y-86574242D01*
X87368450Y-86551425D01*
X87406500Y-86520198D01*
X91254427Y-83658920D01*
X91268449Y-83651425D01*
X91306481Y-83620213D01*
X91319838Y-83610281D01*
X91331547Y-83599642D01*
X91368948Y-83568948D01*
X91379562Y-83556015D01*
X91391950Y-83544759D01*
X91420726Y-83505857D01*
X91451425Y-83468450D01*
X91459316Y-83453686D01*
X91469264Y-83440238D01*
X91489892Y-83396483D01*
X91512710Y-83353793D01*
X91517569Y-83337775D01*
X91524703Y-83322643D01*
X91536398Y-83275706D01*
X91550450Y-83229383D01*
X91552091Y-83212722D01*
X91556135Y-83196491D01*
X91558448Y-83148177D01*
X91560000Y-83132419D01*
X91560000Y-83115759D01*
X91562352Y-83066631D01*
X91560000Y-83050911D01*
X91560000Y-81110599D01*
X92774741Y-79400964D01*
X92801425Y-79368450D01*
X92827598Y-79319483D01*
X92855173Y-79271276D01*
X92858208Y-79262216D01*
X92862710Y-79253793D01*
X92878834Y-79200641D01*
X92896467Y-79148000D01*
X92897675Y-79138531D01*
X92900450Y-79129383D01*
X92905896Y-79074090D01*
X92912919Y-79019037D01*
X92910000Y-78977084D01*
X92910000Y-75282412D01*
X92913192Y-75250000D01*
X92910000Y-75217588D01*
X92910000Y-75217581D01*
X92900450Y-75120617D01*
X92862710Y-74996207D01*
X92801425Y-74881550D01*
X92781896Y-74857754D01*
X92739614Y-74806233D01*
X92739612Y-74806231D01*
X92718948Y-74781052D01*
X92693769Y-74760388D01*
X91756442Y-73823061D01*
X93465000Y-73823061D01*
X93465000Y-74026939D01*
X93504774Y-74226898D01*
X93582795Y-74415256D01*
X93696063Y-74584774D01*
X93740000Y-74628711D01*
X93740000Y-75112677D01*
X93736324Y-75150000D01*
X93740000Y-75187322D01*
X93740000Y-75187332D01*
X93750997Y-75298985D01*
X93777089Y-75384999D01*
X93794454Y-75442246D01*
X93865026Y-75574276D01*
X93901279Y-75618450D01*
X93959999Y-75690001D01*
X93989003Y-75713804D01*
X95697084Y-77421885D01*
X95686928Y-77525000D01*
X95686928Y-79125000D01*
X95699188Y-79249482D01*
X95735498Y-79369180D01*
X95794463Y-79479494D01*
X95873815Y-79576185D01*
X95970506Y-79655537D01*
X96080820Y-79714502D01*
X96200518Y-79750812D01*
X96325000Y-79763072D01*
X97925000Y-79763072D01*
X98049482Y-79750812D01*
X98169180Y-79714502D01*
X98279494Y-79655537D01*
X98376185Y-79576185D01*
X98455537Y-79479494D01*
X98514502Y-79369180D01*
X98550812Y-79249482D01*
X98563072Y-79125000D01*
X98563072Y-77525000D01*
X98550812Y-77400518D01*
X98514502Y-77280820D01*
X98455537Y-77170506D01*
X98376185Y-77073815D01*
X98279494Y-76994463D01*
X98169180Y-76935498D01*
X98049482Y-76899188D01*
X98041039Y-76898357D01*
X98239637Y-76699759D01*
X98396680Y-76464727D01*
X98504853Y-76203574D01*
X98560000Y-75926335D01*
X98560000Y-75643665D01*
X98504853Y-75366426D01*
X98396680Y-75105273D01*
X98239637Y-74870241D01*
X98039759Y-74670363D01*
X97804727Y-74513320D01*
X97543574Y-74405147D01*
X97266335Y-74350000D01*
X96983665Y-74350000D01*
X96706426Y-74405147D01*
X96445273Y-74513320D01*
X96210241Y-74670363D01*
X96010363Y-74870241D01*
X95853320Y-75105273D01*
X95758644Y-75333842D01*
X95260000Y-74835199D01*
X95260000Y-74628711D01*
X95303937Y-74584774D01*
X95417205Y-74415256D01*
X95495226Y-74226898D01*
X95535000Y-74026939D01*
X95535000Y-73823061D01*
X95495226Y-73623102D01*
X95417205Y-73434744D01*
X95303937Y-73265226D01*
X95159774Y-73121063D01*
X94990256Y-73007795D01*
X94801898Y-72929774D01*
X94601939Y-72890000D01*
X94398061Y-72890000D01*
X94198102Y-72929774D01*
X94009744Y-73007795D01*
X93840226Y-73121063D01*
X93696063Y-73265226D01*
X93582795Y-73434744D01*
X93504774Y-73623102D01*
X93465000Y-73823061D01*
X91756442Y-73823061D01*
X90660000Y-72726620D01*
X90660000Y-67717581D01*
X90656802Y-67685110D01*
X90656802Y-67678617D01*
X90655838Y-67669453D01*
X90651095Y-67627169D01*
X90650450Y-67620617D01*
X90650308Y-67620148D01*
X90644961Y-67572478D01*
X90632528Y-67513984D01*
X90620905Y-67455284D01*
X90618180Y-67446481D01*
X90588674Y-67353465D01*
X90565118Y-67298505D01*
X90542314Y-67243178D01*
X90537931Y-67235072D01*
X90490920Y-67149559D01*
X90457128Y-67100208D01*
X90424018Y-67050374D01*
X90418144Y-67043274D01*
X90355419Y-66968522D01*
X90312706Y-66926695D01*
X90299873Y-66913772D01*
X90326475Y-65823061D01*
X92865000Y-65823061D01*
X92865000Y-66026939D01*
X92904774Y-66226898D01*
X92982795Y-66415256D01*
X93096063Y-66584774D01*
X93240226Y-66728937D01*
X93409744Y-66842205D01*
X93598102Y-66920226D01*
X93798061Y-66960000D01*
X93860199Y-66960000D01*
X98940001Y-72039803D01*
X98940000Y-75887677D01*
X98936324Y-75925000D01*
X98940000Y-75962322D01*
X98940000Y-75962332D01*
X98950997Y-76073985D01*
X98971100Y-76140256D01*
X98994454Y-76217246D01*
X99065026Y-76349276D01*
X99104871Y-76397826D01*
X99159999Y-76465001D01*
X99189003Y-76488804D01*
X101765000Y-79064802D01*
X101765000Y-79126939D01*
X101804774Y-79326898D01*
X101882795Y-79515256D01*
X101996063Y-79684774D01*
X102140226Y-79828937D01*
X102309744Y-79942205D01*
X102498102Y-80020226D01*
X102698061Y-80060000D01*
X102901939Y-80060000D01*
X103101898Y-80020226D01*
X103290256Y-79942205D01*
X103459774Y-79828937D01*
X103603937Y-79684774D01*
X103717205Y-79515256D01*
X103795226Y-79326898D01*
X103835000Y-79126939D01*
X103835000Y-78923061D01*
X103795226Y-78723102D01*
X103717205Y-78534744D01*
X103603937Y-78365226D01*
X103459774Y-78221063D01*
X103290256Y-78107795D01*
X103101898Y-78029774D01*
X102901939Y-77990000D01*
X102839802Y-77990000D01*
X100460000Y-75610199D01*
X100460000Y-71762325D01*
X100463676Y-71725000D01*
X100460000Y-71687675D01*
X100460000Y-71687667D01*
X100449003Y-71576014D01*
X100405546Y-71432753D01*
X100334974Y-71300724D01*
X100240001Y-71184999D01*
X100211003Y-71161201D01*
X94935000Y-65885199D01*
X94935000Y-65823061D01*
X94895226Y-65623102D01*
X94817205Y-65434744D01*
X94703937Y-65265226D01*
X94559774Y-65121063D01*
X94390256Y-65007795D01*
X94201898Y-64929774D01*
X94001939Y-64890000D01*
X93798061Y-64890000D01*
X93598102Y-64929774D01*
X93409744Y-65007795D01*
X93240226Y-65121063D01*
X93096063Y-65265226D01*
X92982795Y-65434744D01*
X92904774Y-65623102D01*
X92865000Y-65823061D01*
X90326475Y-65823061D01*
X90373988Y-63875048D01*
X105873000Y-63629032D01*
X105873000Y-64286928D01*
G37*
%TD.AperFunction*%
%TD*%
D25*
%TO.N,/GND*%
X75972185Y-69817658D02*
X75942237Y-69842236D01*
X75917659Y-69872184D01*
X75917655Y-69872188D01*
X75884690Y-69912356D01*
X75844139Y-69961767D01*
X75805177Y-70034660D01*
X75771246Y-70098141D01*
X75726359Y-70246114D01*
X75711203Y-70400000D01*
X75715001Y-70438563D01*
X75715000Y-75261447D01*
X75711203Y-75300000D01*
X75715000Y-75338553D01*
X75715000Y-75338560D01*
X75726359Y-75453886D01*
X75771246Y-75601859D01*
X75844138Y-75738232D01*
X75942236Y-75857764D01*
X75972190Y-75882347D01*
X78117653Y-78027810D01*
X78142236Y-78057764D01*
X78261767Y-78155862D01*
X78398140Y-78228754D01*
X78546113Y-78273642D01*
X78621026Y-78281020D01*
X78661439Y-78285000D01*
X78661444Y-78285000D01*
X78700000Y-78288797D01*
X78738556Y-78285000D01*
X83099843Y-78285000D01*
X86043209Y-81228366D01*
X86009188Y-81340518D01*
X85996928Y-81465000D01*
X85996928Y-82965000D01*
X86009188Y-83089482D01*
X86045498Y-83209180D01*
X86104463Y-83319494D01*
X86183815Y-83416185D01*
X86280506Y-83495537D01*
X86390820Y-83554502D01*
X86494101Y-83585832D01*
X83996365Y-83539578D01*
X84231043Y-83442371D01*
X84457886Y-83290799D01*
X84650799Y-83097886D01*
X84802371Y-82871043D01*
X84906775Y-82618989D01*
X84960000Y-82351411D01*
X84960000Y-82078589D01*
X84906775Y-81811011D01*
X84802371Y-81558957D01*
X84650799Y-81332114D01*
X84457886Y-81139201D01*
X84231043Y-80987629D01*
X83978989Y-80883225D01*
X83711411Y-80830000D01*
X83438589Y-80830000D01*
X83171011Y-80883225D01*
X82918957Y-80987629D01*
X82692114Y-81139201D01*
X82499201Y-81332114D01*
X82347629Y-81558957D01*
X82243225Y-81811011D01*
X82190000Y-82078589D01*
X82190000Y-82351411D01*
X82243225Y-82618989D01*
X82347629Y-82871043D01*
X82499201Y-83097886D01*
X82692114Y-83290799D01*
X82918957Y-83442371D01*
X83114195Y-83523241D01*
X80349412Y-83472042D01*
X80421043Y-83442371D01*
X80647886Y-83290799D01*
X80840799Y-83097886D01*
X80992371Y-82871043D01*
X81096775Y-82618989D01*
X81150000Y-82351411D01*
X81150000Y-82078589D01*
X81096775Y-81811011D01*
X80992371Y-81558957D01*
X80840799Y-81332114D01*
X80647886Y-81139201D01*
X80421043Y-80987629D01*
X80168989Y-80883225D01*
X79901411Y-80830000D01*
X79628589Y-80830000D01*
X79361011Y-80883225D01*
X79108957Y-80987629D01*
X78882114Y-81139201D01*
X78689201Y-81332114D01*
X78537629Y-81558957D01*
X78433225Y-81811011D01*
X78380000Y-82078589D01*
X78380000Y-82351411D01*
X78433225Y-82618989D01*
X78537629Y-82871043D01*
X78689201Y-83097886D01*
X78882114Y-83290799D01*
X79108957Y-83442371D01*
X79125887Y-83449384D01*
X75002351Y-83373022D01*
X74977534Y-83375003D01*
X74953580Y-83381788D01*
X74931410Y-83393115D01*
X74911876Y-83408550D01*
X74895728Y-83427500D01*
X74883587Y-83449235D01*
X74875920Y-83472922D01*
X74873000Y-83500000D01*
X74873000Y-89123000D01*
X60877000Y-89123000D01*
X60877000Y-80975000D01*
X61211928Y-80975000D01*
X61211928Y-82175000D01*
X61224188Y-82299482D01*
X61260498Y-82419180D01*
X61319463Y-82529494D01*
X61398815Y-82626185D01*
X61495506Y-82705537D01*
X61605820Y-82764502D01*
X61725518Y-82800812D01*
X61850000Y-82813072D01*
X63050000Y-82813072D01*
X63174482Y-82800812D01*
X63294180Y-82764502D01*
X63404494Y-82705537D01*
X63501185Y-82626185D01*
X63580537Y-82529494D01*
X63639502Y-82419180D01*
X63675812Y-82299482D01*
X63688072Y-82175000D01*
X63688072Y-81453363D01*
X68715000Y-81453363D01*
X68715000Y-81696637D01*
X68762460Y-81935236D01*
X68855557Y-82159992D01*
X68990713Y-82362267D01*
X69162733Y-82534287D01*
X69365008Y-82669443D01*
X69589764Y-82762540D01*
X69828363Y-82810000D01*
X70071637Y-82810000D01*
X70310236Y-82762540D01*
X70534992Y-82669443D01*
X70737267Y-82534287D01*
X70909287Y-82362267D01*
X71044443Y-82159992D01*
X71137540Y-81935236D01*
X71185000Y-81696637D01*
X71185000Y-81453363D01*
X71137540Y-81214764D01*
X71044443Y-80990008D01*
X70909287Y-80787733D01*
X70737267Y-80615713D01*
X70534992Y-80480557D01*
X70310236Y-80387460D01*
X70071637Y-80340000D01*
X69828363Y-80340000D01*
X69589764Y-80387460D01*
X69365008Y-80480557D01*
X69162733Y-80615713D01*
X68990713Y-80787733D01*
X68855557Y-80990008D01*
X68762460Y-81214764D01*
X68715000Y-81453363D01*
X63688072Y-81453363D01*
X63688072Y-80975000D01*
X63675812Y-80850518D01*
X63639502Y-80730820D01*
X63580537Y-80620506D01*
X63501185Y-80523815D01*
X63404494Y-80444463D01*
X63294180Y-80385498D01*
X63174482Y-80349188D01*
X63050000Y-80336928D01*
X61850000Y-80336928D01*
X61725518Y-80349188D01*
X61605820Y-80385498D01*
X61495506Y-80444463D01*
X61398815Y-80523815D01*
X61319463Y-80620506D01*
X61260498Y-80730820D01*
X61224188Y-80850518D01*
X61211928Y-80975000D01*
X60877000Y-80975000D01*
X60877000Y-79377000D01*
X66500000Y-79377000D01*
X66524776Y-79374560D01*
X66548601Y-79367333D01*
X66570557Y-79355597D01*
X66589803Y-79339803D01*
X66605597Y-79320557D01*
X66617333Y-79298601D01*
X66624560Y-79274776D01*
X66627000Y-79250000D01*
X66627000Y-75627000D01*
X71750000Y-75627000D01*
X71774776Y-75624560D01*
X71798601Y-75617333D01*
X71820557Y-75605597D01*
X71839803Y-75589803D01*
X71855597Y-75570557D01*
X71867333Y-75548601D01*
X71874560Y-75524776D01*
X71877000Y-75500000D01*
X71877000Y-69127000D01*
X76662843Y-69127000D01*
X75972185Y-69817658D01*
%TA.AperFunction,Conductor*%
D26*
G36*
X75972185Y-69817658D02*
G01*
X75942237Y-69842236D01*
X75917659Y-69872184D01*
X75917655Y-69872188D01*
X75884690Y-69912356D01*
X75844139Y-69961767D01*
X75805177Y-70034660D01*
X75771246Y-70098141D01*
X75726359Y-70246114D01*
X75711203Y-70400000D01*
X75715001Y-70438563D01*
X75715000Y-75261447D01*
X75711203Y-75300000D01*
X75715000Y-75338553D01*
X75715000Y-75338560D01*
X75726359Y-75453886D01*
X75771246Y-75601859D01*
X75844138Y-75738232D01*
X75942236Y-75857764D01*
X75972190Y-75882347D01*
X78117653Y-78027810D01*
X78142236Y-78057764D01*
X78261767Y-78155862D01*
X78398140Y-78228754D01*
X78546113Y-78273642D01*
X78621026Y-78281020D01*
X78661439Y-78285000D01*
X78661444Y-78285000D01*
X78700000Y-78288797D01*
X78738556Y-78285000D01*
X83099843Y-78285000D01*
X86043209Y-81228366D01*
X86009188Y-81340518D01*
X85996928Y-81465000D01*
X85996928Y-82965000D01*
X86009188Y-83089482D01*
X86045498Y-83209180D01*
X86104463Y-83319494D01*
X86183815Y-83416185D01*
X86280506Y-83495537D01*
X86390820Y-83554502D01*
X86494101Y-83585832D01*
X83996365Y-83539578D01*
X84231043Y-83442371D01*
X84457886Y-83290799D01*
X84650799Y-83097886D01*
X84802371Y-82871043D01*
X84906775Y-82618989D01*
X84960000Y-82351411D01*
X84960000Y-82078589D01*
X84906775Y-81811011D01*
X84802371Y-81558957D01*
X84650799Y-81332114D01*
X84457886Y-81139201D01*
X84231043Y-80987629D01*
X83978989Y-80883225D01*
X83711411Y-80830000D01*
X83438589Y-80830000D01*
X83171011Y-80883225D01*
X82918957Y-80987629D01*
X82692114Y-81139201D01*
X82499201Y-81332114D01*
X82347629Y-81558957D01*
X82243225Y-81811011D01*
X82190000Y-82078589D01*
X82190000Y-82351411D01*
X82243225Y-82618989D01*
X82347629Y-82871043D01*
X82499201Y-83097886D01*
X82692114Y-83290799D01*
X82918957Y-83442371D01*
X83114195Y-83523241D01*
X80349412Y-83472042D01*
X80421043Y-83442371D01*
X80647886Y-83290799D01*
X80840799Y-83097886D01*
X80992371Y-82871043D01*
X81096775Y-82618989D01*
X81150000Y-82351411D01*
X81150000Y-82078589D01*
X81096775Y-81811011D01*
X80992371Y-81558957D01*
X80840799Y-81332114D01*
X80647886Y-81139201D01*
X80421043Y-80987629D01*
X80168989Y-80883225D01*
X79901411Y-80830000D01*
X79628589Y-80830000D01*
X79361011Y-80883225D01*
X79108957Y-80987629D01*
X78882114Y-81139201D01*
X78689201Y-81332114D01*
X78537629Y-81558957D01*
X78433225Y-81811011D01*
X78380000Y-82078589D01*
X78380000Y-82351411D01*
X78433225Y-82618989D01*
X78537629Y-82871043D01*
X78689201Y-83097886D01*
X78882114Y-83290799D01*
X79108957Y-83442371D01*
X79125887Y-83449384D01*
X75002351Y-83373022D01*
X74977534Y-83375003D01*
X74953580Y-83381788D01*
X74931410Y-83393115D01*
X74911876Y-83408550D01*
X74895728Y-83427500D01*
X74883587Y-83449235D01*
X74875920Y-83472922D01*
X74873000Y-83500000D01*
X74873000Y-89123000D01*
X60877000Y-89123000D01*
X60877000Y-80975000D01*
X61211928Y-80975000D01*
X61211928Y-82175000D01*
X61224188Y-82299482D01*
X61260498Y-82419180D01*
X61319463Y-82529494D01*
X61398815Y-82626185D01*
X61495506Y-82705537D01*
X61605820Y-82764502D01*
X61725518Y-82800812D01*
X61850000Y-82813072D01*
X63050000Y-82813072D01*
X63174482Y-82800812D01*
X63294180Y-82764502D01*
X63404494Y-82705537D01*
X63501185Y-82626185D01*
X63580537Y-82529494D01*
X63639502Y-82419180D01*
X63675812Y-82299482D01*
X63688072Y-82175000D01*
X63688072Y-81453363D01*
X68715000Y-81453363D01*
X68715000Y-81696637D01*
X68762460Y-81935236D01*
X68855557Y-82159992D01*
X68990713Y-82362267D01*
X69162733Y-82534287D01*
X69365008Y-82669443D01*
X69589764Y-82762540D01*
X69828363Y-82810000D01*
X70071637Y-82810000D01*
X70310236Y-82762540D01*
X70534992Y-82669443D01*
X70737267Y-82534287D01*
X70909287Y-82362267D01*
X71044443Y-82159992D01*
X71137540Y-81935236D01*
X71185000Y-81696637D01*
X71185000Y-81453363D01*
X71137540Y-81214764D01*
X71044443Y-80990008D01*
X70909287Y-80787733D01*
X70737267Y-80615713D01*
X70534992Y-80480557D01*
X70310236Y-80387460D01*
X70071637Y-80340000D01*
X69828363Y-80340000D01*
X69589764Y-80387460D01*
X69365008Y-80480557D01*
X69162733Y-80615713D01*
X68990713Y-80787733D01*
X68855557Y-80990008D01*
X68762460Y-81214764D01*
X68715000Y-81453363D01*
X63688072Y-81453363D01*
X63688072Y-80975000D01*
X63675812Y-80850518D01*
X63639502Y-80730820D01*
X63580537Y-80620506D01*
X63501185Y-80523815D01*
X63404494Y-80444463D01*
X63294180Y-80385498D01*
X63174482Y-80349188D01*
X63050000Y-80336928D01*
X61850000Y-80336928D01*
X61725518Y-80349188D01*
X61605820Y-80385498D01*
X61495506Y-80444463D01*
X61398815Y-80523815D01*
X61319463Y-80620506D01*
X61260498Y-80730820D01*
X61224188Y-80850518D01*
X61211928Y-80975000D01*
X60877000Y-80975000D01*
X60877000Y-79377000D01*
X66500000Y-79377000D01*
X66524776Y-79374560D01*
X66548601Y-79367333D01*
X66570557Y-79355597D01*
X66589803Y-79339803D01*
X66605597Y-79320557D01*
X66617333Y-79298601D01*
X66624560Y-79274776D01*
X66627000Y-79250000D01*
X66627000Y-75627000D01*
X71750000Y-75627000D01*
X71774776Y-75624560D01*
X71798601Y-75617333D01*
X71820557Y-75605597D01*
X71839803Y-75589803D01*
X71855597Y-75570557D01*
X71867333Y-75548601D01*
X71874560Y-75524776D01*
X71877000Y-75500000D01*
X71877000Y-69127000D01*
X76662843Y-69127000D01*
X75972185Y-69817658D01*
G37*
%TD.AperFunction*%
D25*
X88123000Y-72250000D02*
X88125440Y-72274776D01*
X88132667Y-72298601D01*
X88144403Y-72320557D01*
X88156028Y-72335429D01*
X88340001Y-72537799D01*
X88340001Y-73467581D01*
X88336808Y-73500000D01*
X88349551Y-73629382D01*
X88387290Y-73753792D01*
X88448575Y-73868450D01*
X88510386Y-73943766D01*
X88510389Y-73943769D01*
X88531053Y-73968948D01*
X88556232Y-73989612D01*
X90560627Y-75994008D01*
X90480790Y-77271394D01*
X90419759Y-77210363D01*
X90184727Y-77053320D01*
X89923574Y-76945147D01*
X89646335Y-76890000D01*
X89363665Y-76890000D01*
X89086426Y-76945147D01*
X88825273Y-77053320D01*
X88590241Y-77210363D01*
X88390363Y-77410241D01*
X88233320Y-77645273D01*
X88125147Y-77906426D01*
X88070000Y-78183665D01*
X88070000Y-78466335D01*
X88125147Y-78743574D01*
X88233320Y-79004727D01*
X88390363Y-79239759D01*
X88590241Y-79439637D01*
X88825273Y-79596680D01*
X89086426Y-79704853D01*
X89363665Y-79760000D01*
X89538924Y-79760000D01*
X89475781Y-79848401D01*
X89448576Y-79881550D01*
X89422796Y-79929781D01*
X89395505Y-79977217D01*
X89392181Y-79987058D01*
X89387291Y-79996207D01*
X89371412Y-80048551D01*
X89353904Y-80100390D01*
X89352565Y-80110681D01*
X89349551Y-80120617D01*
X89344190Y-80175052D01*
X89337130Y-80229311D01*
X89340001Y-80272112D01*
X89340000Y-81427726D01*
X88874623Y-82532998D01*
X88773072Y-82611114D01*
X88773072Y-81465000D01*
X88760812Y-81340518D01*
X88724502Y-81220820D01*
X88665537Y-81110506D01*
X88586185Y-81013815D01*
X88489494Y-80934463D01*
X88379180Y-80875498D01*
X88259482Y-80839188D01*
X88135000Y-80826928D01*
X87862085Y-80826928D01*
X84007345Y-76972188D01*
X83982764Y-76942236D01*
X83863233Y-76844138D01*
X83726860Y-76771246D01*
X83578887Y-76726359D01*
X83463561Y-76715000D01*
X83463553Y-76715000D01*
X83425000Y-76711203D01*
X83386447Y-76715000D01*
X79025157Y-76715000D01*
X77285000Y-74974843D01*
X77285000Y-70725157D01*
X78883157Y-69127000D01*
X88123000Y-69127000D01*
X88123000Y-72250000D01*
%TA.AperFunction,Conductor*%
D26*
G36*
X88123000Y-72250000D02*
G01*
X88125440Y-72274776D01*
X88132667Y-72298601D01*
X88144403Y-72320557D01*
X88156028Y-72335429D01*
X88340001Y-72537799D01*
X88340001Y-73467581D01*
X88336808Y-73500000D01*
X88349551Y-73629382D01*
X88387290Y-73753792D01*
X88448575Y-73868450D01*
X88510386Y-73943766D01*
X88510389Y-73943769D01*
X88531053Y-73968948D01*
X88556232Y-73989612D01*
X90560627Y-75994008D01*
X90480790Y-77271394D01*
X90419759Y-77210363D01*
X90184727Y-77053320D01*
X89923574Y-76945147D01*
X89646335Y-76890000D01*
X89363665Y-76890000D01*
X89086426Y-76945147D01*
X88825273Y-77053320D01*
X88590241Y-77210363D01*
X88390363Y-77410241D01*
X88233320Y-77645273D01*
X88125147Y-77906426D01*
X88070000Y-78183665D01*
X88070000Y-78466335D01*
X88125147Y-78743574D01*
X88233320Y-79004727D01*
X88390363Y-79239759D01*
X88590241Y-79439637D01*
X88825273Y-79596680D01*
X89086426Y-79704853D01*
X89363665Y-79760000D01*
X89538924Y-79760000D01*
X89475781Y-79848401D01*
X89448576Y-79881550D01*
X89422796Y-79929781D01*
X89395505Y-79977217D01*
X89392181Y-79987058D01*
X89387291Y-79996207D01*
X89371412Y-80048551D01*
X89353904Y-80100390D01*
X89352565Y-80110681D01*
X89349551Y-80120617D01*
X89344190Y-80175052D01*
X89337130Y-80229311D01*
X89340001Y-80272112D01*
X89340000Y-81427726D01*
X88874623Y-82532998D01*
X88773072Y-82611114D01*
X88773072Y-81465000D01*
X88760812Y-81340518D01*
X88724502Y-81220820D01*
X88665537Y-81110506D01*
X88586185Y-81013815D01*
X88489494Y-80934463D01*
X88379180Y-80875498D01*
X88259482Y-80839188D01*
X88135000Y-80826928D01*
X87862085Y-80826928D01*
X84007345Y-76972188D01*
X83982764Y-76942236D01*
X83863233Y-76844138D01*
X83726860Y-76771246D01*
X83578887Y-76726359D01*
X83463561Y-76715000D01*
X83463553Y-76715000D01*
X83425000Y-76711203D01*
X83386447Y-76715000D01*
X79025157Y-76715000D01*
X77285000Y-74974843D01*
X77285000Y-70725157D01*
X78883157Y-69127000D01*
X88123000Y-69127000D01*
X88123000Y-72250000D01*
G37*
%TD.AperFunction*%
%TD*%
M02*
