M48
; DRILL file {KiCad (5.1.12-1-g0a0a2da680)-1} date 11/23/21 21:30:46
; FORMAT={-:-/ absolute / metric / decimal}
; #@! TF.CreationDate,2021-11-23T21:30:46+01:00
; #@! TF.GenerationSoftware,Kicad,Pcbnew,(5.1.12-1-g0a0a2da680)-1
FMAT,2
METRIC
T1C0.400
T2C0.700
T3C0.800
T4C1.000
T5C1.010
T6C1.200
T7C1.300
T8C1.500
T9C2.600
%
G90
G05
T1
X60.75Y-84.6
X93.9Y-65.925
X94.5Y-73.925
X99.85Y-83.375
X102.8Y-79.025
X103.875Y-75.65
T2
X62.45Y-81.575
X69.95Y-81.575
T3
X89.505Y-75.785
X89.505Y-78.325
X97.125Y-75.785
X97.125Y-78.325
T4
X79.765Y-82.215
X79.765Y-89.835
X81.275Y-65.625
X81.275Y-73.125
X83.575Y-82.215
X83.575Y-89.835
X87.385Y-82.215
X87.385Y-89.835
T5
X63.626Y-72.3
X63.626Y-77.4
X68.726Y-72.3
X68.726Y-77.4
T6
X105.275Y-63.285
X105.275Y-65.825
T7
X51.375Y-73.375
X51.375Y-80.875
X51.375Y-88.375
X56.375Y-73.375
X56.375Y-80.875
X56.375Y-88.375
T8
X51.95Y-64.95
X66.95Y-64.95
T9
X59.45Y-64.95
T0
M30
