%TF.GenerationSoftware,KiCad,Pcbnew,(5.1.12-1-g0a0a2da680)-1*%
%TF.CreationDate,2021-11-23T21:30:51+01:00*%
%TF.ProjectId,SMPS,534d5053-2e6b-4696-9361-645f70636258,rev?*%
%TF.SameCoordinates,Original*%
%TF.FileFunction,Soldermask,Top*%
%TF.FilePolarity,Negative*%
%FSLAX46Y46*%
G04 Gerber Fmt 4.6, Leading zero omitted, Abs format (unit mm)*
G04 Created by KiCad (PCBNEW (5.1.12-1-g0a0a2da680)-1) date 2021-11-23 21:30:51*
%MOMM*%
%LPD*%
G01*
G04 APERTURE LIST*
%ADD10C,0.100000*%
%ADD11C,1.500000*%
%ADD12R,1.500000X1.500000*%
%ADD13R,1.000000X1.450000*%
%ADD14R,1.780000X3.560000*%
%ADD15C,1.800000*%
%ADD16R,1.800000X1.800000*%
%ADD17C,1.950000*%
%ADD18R,1.200000X3.300000*%
%ADD19R,1.200000X1.000000*%
%ADD20R,1.950000X3.200000*%
%ADD21R,1.950000X0.900000*%
%ADD22C,2.600000*%
%ADD23C,2.250000*%
%ADD24R,2.200000X3.050000*%
%ADD25R,1.270000X0.762000*%
%ADD26R,2.540000X2.670000*%
%ADD27R,3.800000X2.150000*%
%ADD28R,1.470000X1.020000*%
%ADD29R,1.800000X2.600000*%
%ADD30R,1.020000X1.470000*%
%ADD31R,0.900000X0.800000*%
%ADD32O,1.600000X1.600000*%
%ADD33R,1.600000X1.600000*%
%ADD34C,1.200000*%
%ADD35R,1.200000X1.200000*%
%ADD36C,1.510000*%
G04 APERTURE END LIST*
D10*
G36*
X108490000Y-63500000D02*
G01*
X107340000Y-63500000D01*
X107340000Y-60770000D01*
X108490000Y-60770000D01*
X108490000Y-63500000D01*
G37*
X108490000Y-63500000D02*
X107340000Y-63500000D01*
X107340000Y-60770000D01*
X108490000Y-60770000D01*
X108490000Y-63500000D01*
G36*
X61350000Y-91455000D02*
G01*
X48380000Y-91470000D01*
X48380000Y-90320000D01*
X61350000Y-90305000D01*
X61350000Y-91455000D01*
G37*
X61350000Y-91455000D02*
X48380000Y-91470000D01*
X48380000Y-90320000D01*
X61350000Y-90305000D01*
X61350000Y-91455000D01*
G36*
X107280000Y-61920000D02*
G01*
X48380000Y-61920000D01*
X48380000Y-60770000D01*
X107280000Y-60770000D01*
X107280000Y-61920000D01*
G37*
X107280000Y-61920000D02*
X48380000Y-61920000D01*
X48380000Y-60770000D01*
X107280000Y-60770000D01*
X107280000Y-61920000D01*
G36*
X48440000Y-91470000D02*
G01*
X47290000Y-91470000D01*
X47290000Y-60770000D01*
X48440000Y-60770000D01*
X48440000Y-91470000D01*
G37*
X48440000Y-91470000D02*
X47290000Y-91470000D01*
X47290000Y-60770000D01*
X48440000Y-60770000D01*
X48440000Y-91470000D01*
D11*
%TO.C,T1*%
X83575000Y-82215000D03*
X83575000Y-89835000D03*
D12*
X87385000Y-82215000D03*
D11*
X87385000Y-89835000D03*
X79765000Y-82215000D03*
X79765000Y-89835000D03*
%TD*%
D13*
%TO.C,R4*%
X93900000Y-84600000D03*
X92000000Y-84600000D03*
%TD*%
%TO.C,R3*%
X95475000Y-84600000D03*
X97375000Y-84600000D03*
%TD*%
%TO.C,R2*%
X93250000Y-72925000D03*
X91350000Y-72925000D03*
%TD*%
%TO.C,R1*%
X67900000Y-84925000D03*
X66000000Y-84925000D03*
%TD*%
D14*
%TO.C,L1*%
X100625000Y-65275000D03*
X91225000Y-65275000D03*
%TD*%
D15*
%TO.C,J2*%
X105275000Y-63285000D03*
D16*
X105275000Y-65825000D03*
%TD*%
D17*
%TO.C,J1*%
X51375000Y-88375000D03*
X51375000Y-80875000D03*
X51375000Y-73375000D03*
X56375000Y-88375000D03*
X56375000Y-80875000D03*
X56375000Y-73375000D03*
%TD*%
D18*
%TO.C,IC2*%
X67450000Y-88625000D03*
D19*
X74250000Y-86325000D03*
X74250000Y-88625000D03*
X74250000Y-90925000D03*
%TD*%
D20*
%TO.C,IC1*%
X107550000Y-73550000D03*
D21*
X101450000Y-75850000D03*
X101450000Y-73550000D03*
X101450000Y-71250000D03*
%TD*%
D22*
%TO.C,F1*%
X59450000Y-64950000D03*
D23*
X66950000Y-64950000D03*
X51950000Y-64950000D03*
%TD*%
D24*
%TO.C,D2*%
X96550000Y-88900000D03*
X103550000Y-88900000D03*
%TD*%
D25*
%TO.C,D1*%
X73250000Y-79272500D03*
D26*
X73250000Y-81623500D03*
%TD*%
D27*
%TO.C,C7*%
X99125000Y-81375000D03*
X105925000Y-81375000D03*
%TD*%
D28*
%TO.C,C6*%
X92350000Y-82600000D03*
X92350000Y-81000000D03*
%TD*%
D29*
%TO.C,C4*%
X62825000Y-85550000D03*
X62825000Y-90050000D03*
%TD*%
D11*
%TO.C,C3*%
X81275000Y-73125000D03*
D12*
X81275000Y-65625000D03*
%TD*%
D28*
%TO.C,C2*%
X99275000Y-73850000D03*
X99275000Y-75450000D03*
%TD*%
D30*
%TO.C,C1*%
X97375000Y-72950000D03*
X95775000Y-72950000D03*
%TD*%
D31*
%TO.C,U2*%
X96200000Y-81800000D03*
X94200000Y-82750000D03*
X94200000Y-80850000D03*
%TD*%
D32*
%TO.C,U1*%
X89505000Y-78325000D03*
X97125000Y-75785000D03*
X89505000Y-75785000D03*
D33*
X97125000Y-78325000D03*
%TD*%
D34*
%TO.C,C5*%
X69950000Y-81575000D03*
D35*
X62450000Y-81575000D03*
%TD*%
D36*
%TO.C,BR1*%
X63626000Y-77400000D03*
X68726000Y-77400000D03*
X68726000Y-72300000D03*
X63626000Y-72300000D03*
%TD*%
M02*
