%TF.GenerationSoftware,KiCad,Pcbnew,(5.1.12-1-g0a0a2da680)-1*%
%TF.CreationDate,2021-11-23T21:30:51+01:00*%
%TF.ProjectId,SMPS,534d5053-2e6b-4696-9361-645f70636258,rev?*%
%TF.SameCoordinates,Original*%
%TF.FileFunction,Legend,Top*%
%TF.FilePolarity,Positive*%
%FSLAX46Y46*%
G04 Gerber Fmt 4.6, Leading zero omitted, Abs format (unit mm)*
G04 Created by KiCad (PCBNEW (5.1.12-1-g0a0a2da680)-1) date 2021-11-23 21:30:51*
%MOMM*%
%LPD*%
G01*
G04 APERTURE LIST*
%ADD10C,0.150000*%
%ADD11C,0.127000*%
%ADD12C,0.200000*%
%ADD13C,0.100000*%
%ADD14C,0.400000*%
%ADD15C,0.254000*%
%ADD16C,0.120000*%
%ADD17C,0.187500*%
G04 APERTURE END LIST*
D10*
X79419047Y-65671428D02*
X80180952Y-65671428D01*
X79800000Y-66052380D02*
X79800000Y-65290476D01*
X78409523Y-72985714D02*
X78409523Y-73795238D01*
X78361904Y-73890476D01*
X78314285Y-73938095D01*
X78219047Y-73985714D01*
X78076190Y-73985714D01*
X77980952Y-73938095D01*
X78409523Y-73604761D02*
X78314285Y-73652380D01*
X78123809Y-73652380D01*
X78028571Y-73604761D01*
X77980952Y-73557142D01*
X77933333Y-73461904D01*
X77933333Y-73176190D01*
X77980952Y-73080952D01*
X78028571Y-73033333D01*
X78123809Y-72985714D01*
X78314285Y-72985714D01*
X78409523Y-73033333D01*
X78885714Y-72985714D02*
X78885714Y-73652380D01*
X78885714Y-73080952D02*
X78933333Y-73033333D01*
X79028571Y-72985714D01*
X79171428Y-72985714D01*
X79266666Y-73033333D01*
X79314285Y-73128571D01*
X79314285Y-73652380D01*
X80219047Y-73652380D02*
X80219047Y-72652380D01*
X80219047Y-73604761D02*
X80123809Y-73652380D01*
X79933333Y-73652380D01*
X79838095Y-73604761D01*
X79790476Y-73557142D01*
X79742857Y-73461904D01*
X79742857Y-73176190D01*
X79790476Y-73080952D01*
X79838095Y-73033333D01*
X79933333Y-72985714D01*
X80123809Y-72985714D01*
X80219047Y-73033333D01*
X83152380Y-71828571D02*
X82152380Y-71828571D01*
X82152380Y-71590476D01*
X82200000Y-71447619D01*
X82295238Y-71352380D01*
X82390476Y-71304761D01*
X82580952Y-71257142D01*
X82723809Y-71257142D01*
X82914285Y-71304761D01*
X83009523Y-71352380D01*
X83104761Y-71447619D01*
X83152380Y-71590476D01*
X83152380Y-71828571D01*
X83057142Y-70257142D02*
X83104761Y-70304761D01*
X83152380Y-70447619D01*
X83152380Y-70542857D01*
X83104761Y-70685714D01*
X83009523Y-70780952D01*
X82914285Y-70828571D01*
X82723809Y-70876190D01*
X82580952Y-70876190D01*
X82390476Y-70828571D01*
X82295238Y-70780952D01*
X82200000Y-70685714D01*
X82152380Y-70542857D01*
X82152380Y-70447619D01*
X82200000Y-70304761D01*
X82247619Y-70257142D01*
X83152380Y-69352380D02*
X83152380Y-69828571D01*
X82152380Y-69828571D01*
X83152380Y-69019047D02*
X82152380Y-69019047D01*
X83152380Y-68542857D02*
X82152380Y-68542857D01*
X83152380Y-67971428D01*
X82152380Y-67971428D01*
X83152380Y-67495238D02*
X82152380Y-67495238D01*
X83152380Y-66923809D02*
X82580952Y-67352380D01*
X82152380Y-66923809D02*
X82723809Y-67495238D01*
D11*
%TO.C,T1*%
X91075000Y-80525000D02*
X76075000Y-80525000D01*
X91075000Y-91525000D02*
X76075000Y-91525000D01*
X76075000Y-91525000D02*
X76075000Y-80525000D01*
X91075000Y-91525000D02*
X91075000Y-80525000D01*
D12*
%TO.C,R4*%
X92950000Y-84075000D02*
X92950000Y-85125000D01*
%TO.C,R3*%
X96425000Y-85125000D02*
X96425000Y-84075000D01*
%TO.C,R2*%
X92300000Y-72400000D02*
X92300000Y-73450000D01*
%TO.C,R1*%
X66950000Y-84400000D02*
X66950000Y-85450000D01*
D13*
%TO.C,L1*%
X101005000Y-70275000D02*
X101025000Y-67815000D01*
X90825000Y-70275000D02*
X101005000Y-70275000D01*
X90825000Y-67815000D02*
X90825000Y-70275000D01*
X90845000Y-60275000D02*
X90845000Y-62735000D01*
X101005000Y-60275000D02*
X90845000Y-60275000D01*
X101005000Y-62735000D02*
X101005000Y-60275000D01*
%TO.C,J2*%
X108525000Y-67325000D02*
X102025000Y-67325000D01*
X108525000Y-61785000D02*
X108525000Y-67325000D01*
X102025000Y-61785000D02*
X108525000Y-61785000D01*
X102025000Y-67325000D02*
X102025000Y-61785000D01*
D14*
%TO.C,J1*%
X58075000Y-72025000D02*
G75*
G03*
X58075000Y-72025000I-100000J0D01*
G01*
D12*
X47275000Y-70275000D02*
X59975000Y-70275000D01*
X47275000Y-90475000D02*
X47275000Y-70275000D01*
X47775000Y-90475000D02*
X47275000Y-90475000D01*
X47775000Y-91475000D02*
X47775000Y-90475000D01*
X48325000Y-91475000D02*
X47775000Y-91475000D01*
X48325000Y-91975000D02*
X48325000Y-91475000D01*
X50625000Y-91975000D02*
X48325000Y-91975000D01*
X50625000Y-91475000D02*
X50625000Y-91975000D01*
X57125000Y-91475000D02*
X50625000Y-91475000D01*
X57125000Y-91975000D02*
X57125000Y-91475000D01*
X59425000Y-91975000D02*
X57125000Y-91975000D01*
X59425000Y-91475000D02*
X59425000Y-91975000D01*
X59975000Y-91475000D02*
X59425000Y-91475000D01*
X59975000Y-70275000D02*
X59975000Y-91475000D01*
%TO.C,IC2*%
X74850000Y-91775000D02*
X73650000Y-91775000D01*
X72600000Y-85375000D02*
X72600000Y-91875000D01*
X69100000Y-85375000D02*
X72600000Y-85375000D01*
X69100000Y-91875000D02*
X69100000Y-85375000D01*
X72600000Y-91875000D02*
X69100000Y-91875000D01*
%TO.C,IC1*%
X100475000Y-70450000D02*
X102425000Y-70450000D01*
X102775000Y-76800000D02*
X102775000Y-70300000D01*
X106225000Y-76800000D02*
X102775000Y-76800000D01*
X106225000Y-70300000D02*
X106225000Y-76800000D01*
X102775000Y-70300000D02*
X106225000Y-70300000D01*
D11*
%TO.C,F1*%
X71650000Y-69650000D02*
X47250000Y-69650000D01*
X71650000Y-60250000D02*
X71650000Y-69650000D01*
X47250000Y-60250000D02*
X71650000Y-60250000D01*
X47250000Y-69650000D02*
X47250000Y-60250000D01*
D12*
%TO.C,D2*%
X104020000Y-85948000D02*
X96080000Y-85948000D01*
X96080000Y-91852000D02*
X104650000Y-91852000D01*
D15*
%TO.C,D1*%
X73295850Y-83568000D02*
G75*
G03*
X73295850Y-83568000I-64850J0D01*
G01*
D12*
%TO.C,C7*%
X104600000Y-77225000D02*
X98375000Y-77225000D01*
X107825000Y-85525000D02*
X98375000Y-85525000D01*
%TO.C,C4*%
X64975000Y-88875000D02*
X64975000Y-85650000D01*
X60675000Y-91350000D02*
X60675000Y-85650000D01*
%TO.C,C3*%
X90400000Y-69375000D02*
G75*
G03*
X90400000Y-69375000I-9125000J0D01*
G01*
D16*
%TO.C,U2*%
X95960000Y-83380000D02*
X95960000Y-82450000D01*
X95960000Y-80220000D02*
X95960000Y-81150000D01*
X95960000Y-80220000D02*
X93800000Y-80220000D01*
X95960000Y-83380000D02*
X94500000Y-83380000D01*
%TO.C,U1*%
X94315000Y-79655000D02*
X95965000Y-79655000D01*
X95965000Y-79655000D02*
X95965000Y-74455000D01*
X95965000Y-74455000D02*
X90665000Y-74455000D01*
X90665000Y-74455000D02*
X90665000Y-79655000D01*
X90665000Y-79655000D02*
X92315000Y-79655000D01*
X92315000Y-79655000D02*
G75*
G02*
X94315000Y-79655000I1000000J0D01*
G01*
D13*
%TO.C,C5*%
X61200000Y-79575000D02*
X71200000Y-79575000D01*
X71200000Y-79575000D02*
X71200000Y-83575000D01*
X71200000Y-83575000D02*
X61200000Y-83575000D01*
X61200000Y-83575000D02*
X61200000Y-79575000D01*
D12*
X60650000Y-81575000D02*
G75*
G03*
X60650000Y-81575000I-50000J0D01*
G01*
%TO.C,BR1*%
X61270000Y-70430000D02*
X71130000Y-70430000D01*
X71130000Y-70430000D02*
X71130000Y-79270000D01*
X71130000Y-79270000D02*
X61270000Y-79270000D01*
X61270000Y-79270000D02*
X61270000Y-70430000D01*
%TO.C,T1*%
D15*
X82732380Y-85304523D02*
X83458095Y-85304523D01*
X83095238Y-86574523D02*
X83095238Y-85304523D01*
X84546666Y-86574523D02*
X83820952Y-86574523D01*
X84183809Y-86574523D02*
X84183809Y-85304523D01*
X84062857Y-85485952D01*
X83941904Y-85606904D01*
X83820952Y-85667380D01*
%TO.C,R4*%
X92738333Y-86874523D02*
X92315000Y-86269761D01*
X92012619Y-86874523D02*
X92012619Y-85604523D01*
X92496428Y-85604523D01*
X92617380Y-85665000D01*
X92677857Y-85725476D01*
X92738333Y-85846428D01*
X92738333Y-86027857D01*
X92677857Y-86148809D01*
X92617380Y-86209285D01*
X92496428Y-86269761D01*
X92012619Y-86269761D01*
X93826904Y-86027857D02*
X93826904Y-86874523D01*
X93524523Y-85544047D02*
X93222142Y-86451190D01*
X94008333Y-86451190D01*
%TO.C,R3*%
X96188333Y-86874523D02*
X95765000Y-86269761D01*
X95462619Y-86874523D02*
X95462619Y-85604523D01*
X95946428Y-85604523D01*
X96067380Y-85665000D01*
X96127857Y-85725476D01*
X96188333Y-85846428D01*
X96188333Y-86027857D01*
X96127857Y-86148809D01*
X96067380Y-86209285D01*
X95946428Y-86269761D01*
X95462619Y-86269761D01*
X96611666Y-85604523D02*
X97397857Y-85604523D01*
X96974523Y-86088333D01*
X97155952Y-86088333D01*
X97276904Y-86148809D01*
X97337380Y-86209285D01*
X97397857Y-86330238D01*
X97397857Y-86632619D01*
X97337380Y-86753571D01*
X97276904Y-86814047D01*
X97155952Y-86874523D01*
X96793095Y-86874523D01*
X96672142Y-86814047D01*
X96611666Y-86753571D01*
%TO.C,R2*%
X92088333Y-71774523D02*
X91665000Y-71169761D01*
X91362619Y-71774523D02*
X91362619Y-70504523D01*
X91846428Y-70504523D01*
X91967380Y-70565000D01*
X92027857Y-70625476D01*
X92088333Y-70746428D01*
X92088333Y-70927857D01*
X92027857Y-71048809D01*
X91967380Y-71109285D01*
X91846428Y-71169761D01*
X91362619Y-71169761D01*
X92572142Y-70625476D02*
X92632619Y-70565000D01*
X92753571Y-70504523D01*
X93055952Y-70504523D01*
X93176904Y-70565000D01*
X93237380Y-70625476D01*
X93297857Y-70746428D01*
X93297857Y-70867380D01*
X93237380Y-71048809D01*
X92511666Y-71774523D01*
X93297857Y-71774523D01*
%TO.C,R1*%
X69388333Y-85074523D02*
X68965000Y-84469761D01*
X68662619Y-85074523D02*
X68662619Y-83804523D01*
X69146428Y-83804523D01*
X69267380Y-83865000D01*
X69327857Y-83925476D01*
X69388333Y-84046428D01*
X69388333Y-84227857D01*
X69327857Y-84348809D01*
X69267380Y-84409285D01*
X69146428Y-84469761D01*
X68662619Y-84469761D01*
X70597857Y-85074523D02*
X69872142Y-85074523D01*
X70235000Y-85074523D02*
X70235000Y-83804523D01*
X70114047Y-83985952D01*
X69993095Y-84106904D01*
X69872142Y-84167380D01*
%TO.C,L1*%
X96499523Y-65486666D02*
X96499523Y-66091428D01*
X95229523Y-66091428D01*
X96499523Y-64398095D02*
X96499523Y-65123809D01*
X96499523Y-64760952D02*
X95229523Y-64760952D01*
X95410952Y-64881904D01*
X95531904Y-65002857D01*
X95592380Y-65123809D01*
%TO.C,J2*%
X102804523Y-64923333D02*
X103711666Y-64923333D01*
X103893095Y-64983809D01*
X104014047Y-65104761D01*
X104074523Y-65286190D01*
X104074523Y-65407142D01*
X102925476Y-64379047D02*
X102865000Y-64318571D01*
X102804523Y-64197619D01*
X102804523Y-63895238D01*
X102865000Y-63774285D01*
X102925476Y-63713809D01*
X103046428Y-63653333D01*
X103167380Y-63653333D01*
X103348809Y-63713809D01*
X104074523Y-64439523D01*
X104074523Y-63653333D01*
%TO.C,J1*%
D10*
X53483333Y-76815476D02*
X53483333Y-77708333D01*
X53423809Y-77886904D01*
X53304761Y-78005952D01*
X53126190Y-78065476D01*
X53007142Y-78065476D01*
X54733333Y-78065476D02*
X54019047Y-78065476D01*
X54376190Y-78065476D02*
X54376190Y-76815476D01*
X54257142Y-76994047D01*
X54138095Y-77113095D01*
X54019047Y-77172619D01*
%TO.C,IC2*%
D15*
X69610238Y-89199523D02*
X69610238Y-87929523D01*
X70940714Y-89078571D02*
X70880238Y-89139047D01*
X70698809Y-89199523D01*
X70577857Y-89199523D01*
X70396428Y-89139047D01*
X70275476Y-89018095D01*
X70215000Y-88897142D01*
X70154523Y-88655238D01*
X70154523Y-88473809D01*
X70215000Y-88231904D01*
X70275476Y-88110952D01*
X70396428Y-87990000D01*
X70577857Y-87929523D01*
X70698809Y-87929523D01*
X70880238Y-87990000D01*
X70940714Y-88050476D01*
X71424523Y-88050476D02*
X71485000Y-87990000D01*
X71605952Y-87929523D01*
X71908333Y-87929523D01*
X72029285Y-87990000D01*
X72089761Y-88050476D01*
X72150238Y-88171428D01*
X72150238Y-88292380D01*
X72089761Y-88473809D01*
X71364047Y-89199523D01*
X72150238Y-89199523D01*
%TO.C,IC1*%
X103260238Y-74124523D02*
X103260238Y-72854523D01*
X104590714Y-74003571D02*
X104530238Y-74064047D01*
X104348809Y-74124523D01*
X104227857Y-74124523D01*
X104046428Y-74064047D01*
X103925476Y-73943095D01*
X103865000Y-73822142D01*
X103804523Y-73580238D01*
X103804523Y-73398809D01*
X103865000Y-73156904D01*
X103925476Y-73035952D01*
X104046428Y-72915000D01*
X104227857Y-72854523D01*
X104348809Y-72854523D01*
X104530238Y-72915000D01*
X104590714Y-72975476D01*
X105800238Y-74124523D02*
X105074523Y-74124523D01*
X105437380Y-74124523D02*
X105437380Y-72854523D01*
X105316428Y-73035952D01*
X105195476Y-73156904D01*
X105074523Y-73217380D01*
%TO.C,F1*%
D10*
X59065094Y-62628234D02*
X58730188Y-62628234D01*
X58730188Y-63154514D02*
X58730188Y-62149797D01*
X59208625Y-62149797D01*
X60117655Y-63154514D02*
X59543531Y-63154514D01*
X59830593Y-63154514D02*
X59830593Y-62149797D01*
X59734905Y-62293328D01*
X59639218Y-62389016D01*
X59543531Y-62436859D01*
%TO.C,D2*%
D15*
X99112619Y-89474523D02*
X99112619Y-88204523D01*
X99415000Y-88204523D01*
X99596428Y-88265000D01*
X99717380Y-88385952D01*
X99777857Y-88506904D01*
X99838333Y-88748809D01*
X99838333Y-88930238D01*
X99777857Y-89172142D01*
X99717380Y-89293095D01*
X99596428Y-89414047D01*
X99415000Y-89474523D01*
X99112619Y-89474523D01*
X100322142Y-88325476D02*
X100382619Y-88265000D01*
X100503571Y-88204523D01*
X100805952Y-88204523D01*
X100926904Y-88265000D01*
X100987380Y-88325476D01*
X101047857Y-88446428D01*
X101047857Y-88567380D01*
X100987380Y-88748809D01*
X100261666Y-89474523D01*
X101047857Y-89474523D01*
%TO.C,D1*%
X73874523Y-78537380D02*
X72604523Y-78537380D01*
X72604523Y-78235000D01*
X72665000Y-78053571D01*
X72785952Y-77932619D01*
X72906904Y-77872142D01*
X73148809Y-77811666D01*
X73330238Y-77811666D01*
X73572142Y-77872142D01*
X73693095Y-77932619D01*
X73814047Y-78053571D01*
X73874523Y-78235000D01*
X73874523Y-78537380D01*
X73874523Y-76602142D02*
X73874523Y-77327857D01*
X73874523Y-76965000D02*
X72604523Y-76965000D01*
X72785952Y-77085952D01*
X72906904Y-77206904D01*
X72967380Y-77327857D01*
%TO.C,C7*%
X102313333Y-81828571D02*
X102252857Y-81889047D01*
X102071428Y-81949523D01*
X101950476Y-81949523D01*
X101769047Y-81889047D01*
X101648095Y-81768095D01*
X101587619Y-81647142D01*
X101527142Y-81405238D01*
X101527142Y-81223809D01*
X101587619Y-80981904D01*
X101648095Y-80860952D01*
X101769047Y-80740000D01*
X101950476Y-80679523D01*
X102071428Y-80679523D01*
X102252857Y-80740000D01*
X102313333Y-80800476D01*
X102736666Y-80679523D02*
X103583333Y-80679523D01*
X103039047Y-81949523D01*
%TO.C,C6*%
D17*
X91267857Y-81875000D02*
X91303571Y-81910714D01*
X91339285Y-82017857D01*
X91339285Y-82089285D01*
X91303571Y-82196428D01*
X91232142Y-82267857D01*
X91160714Y-82303571D01*
X91017857Y-82339285D01*
X90910714Y-82339285D01*
X90767857Y-82303571D01*
X90696428Y-82267857D01*
X90625000Y-82196428D01*
X90589285Y-82089285D01*
X90589285Y-82017857D01*
X90625000Y-81910714D01*
X90660714Y-81875000D01*
X90589285Y-81232142D02*
X90589285Y-81375000D01*
X90625000Y-81446428D01*
X90660714Y-81482142D01*
X90767857Y-81553571D01*
X90910714Y-81589285D01*
X91196428Y-81589285D01*
X91267857Y-81553571D01*
X91303571Y-81517857D01*
X91339285Y-81446428D01*
X91339285Y-81303571D01*
X91303571Y-81232142D01*
X91267857Y-81196428D01*
X91196428Y-81160714D01*
X91017857Y-81160714D01*
X90946428Y-81196428D01*
X90910714Y-81232142D01*
X90875000Y-81303571D01*
X90875000Y-81446428D01*
X90910714Y-81517857D01*
X90946428Y-81553571D01*
X91017857Y-81589285D01*
%TO.C,C4*%
D15*
X65353571Y-90411666D02*
X65414047Y-90472142D01*
X65474523Y-90653571D01*
X65474523Y-90774523D01*
X65414047Y-90955952D01*
X65293095Y-91076904D01*
X65172142Y-91137380D01*
X64930238Y-91197857D01*
X64748809Y-91197857D01*
X64506904Y-91137380D01*
X64385952Y-91076904D01*
X64265000Y-90955952D01*
X64204523Y-90774523D01*
X64204523Y-90653571D01*
X64265000Y-90472142D01*
X64325476Y-90411666D01*
X64627857Y-89323095D02*
X65474523Y-89323095D01*
X64144047Y-89625476D02*
X65051190Y-89927857D01*
X65051190Y-89141666D01*
%TO.C,C3*%
X81728571Y-69586666D02*
X81789047Y-69647142D01*
X81849523Y-69828571D01*
X81849523Y-69949523D01*
X81789047Y-70130952D01*
X81668095Y-70251904D01*
X81547142Y-70312380D01*
X81305238Y-70372857D01*
X81123809Y-70372857D01*
X80881904Y-70312380D01*
X80760952Y-70251904D01*
X80640000Y-70130952D01*
X80579523Y-69949523D01*
X80579523Y-69828571D01*
X80640000Y-69647142D01*
X80700476Y-69586666D01*
X80579523Y-69163333D02*
X80579523Y-68377142D01*
X81063333Y-68800476D01*
X81063333Y-68619047D01*
X81123809Y-68498095D01*
X81184285Y-68437619D01*
X81305238Y-68377142D01*
X81607619Y-68377142D01*
X81728571Y-68437619D01*
X81789047Y-68498095D01*
X81849523Y-68619047D01*
X81849523Y-68981904D01*
X81789047Y-69102857D01*
X81728571Y-69163333D01*
%TO.C,C2*%
X99753571Y-72411666D02*
X99814047Y-72472142D01*
X99874523Y-72653571D01*
X99874523Y-72774523D01*
X99814047Y-72955952D01*
X99693095Y-73076904D01*
X99572142Y-73137380D01*
X99330238Y-73197857D01*
X99148809Y-73197857D01*
X98906904Y-73137380D01*
X98785952Y-73076904D01*
X98665000Y-72955952D01*
X98604523Y-72774523D01*
X98604523Y-72653571D01*
X98665000Y-72472142D01*
X98725476Y-72411666D01*
X98725476Y-71927857D02*
X98665000Y-71867380D01*
X98604523Y-71746428D01*
X98604523Y-71444047D01*
X98665000Y-71323095D01*
X98725476Y-71262619D01*
X98846428Y-71202142D01*
X98967380Y-71202142D01*
X99148809Y-71262619D01*
X99874523Y-71988333D01*
X99874523Y-71202142D01*
%TO.C,C1*%
X96363333Y-71653571D02*
X96302857Y-71714047D01*
X96121428Y-71774523D01*
X96000476Y-71774523D01*
X95819047Y-71714047D01*
X95698095Y-71593095D01*
X95637619Y-71472142D01*
X95577142Y-71230238D01*
X95577142Y-71048809D01*
X95637619Y-70806904D01*
X95698095Y-70685952D01*
X95819047Y-70565000D01*
X96000476Y-70504523D01*
X96121428Y-70504523D01*
X96302857Y-70565000D01*
X96363333Y-70625476D01*
X97572857Y-71774523D02*
X96847142Y-71774523D01*
X97210000Y-71774523D02*
X97210000Y-70504523D01*
X97089047Y-70685952D01*
X96968095Y-70806904D01*
X96847142Y-70867380D01*
%TO.C,U2*%
D10*
X92538095Y-76452380D02*
X92538095Y-77261904D01*
X92585714Y-77357142D01*
X92633333Y-77404761D01*
X92728571Y-77452380D01*
X92919047Y-77452380D01*
X93014285Y-77404761D01*
X93061904Y-77357142D01*
X93109523Y-77261904D01*
X93109523Y-76452380D01*
X93538095Y-76547619D02*
X93585714Y-76500000D01*
X93680952Y-76452380D01*
X93919047Y-76452380D01*
X94014285Y-76500000D01*
X94061904Y-76547619D01*
X94109523Y-76642857D01*
X94109523Y-76738095D01*
X94061904Y-76880952D01*
X93490476Y-77452380D01*
X94109523Y-77452380D01*
%TO.C,U1*%
X95438095Y-82452380D02*
X95438095Y-83261904D01*
X95485714Y-83357142D01*
X95533333Y-83404761D01*
X95628571Y-83452380D01*
X95819047Y-83452380D01*
X95914285Y-83404761D01*
X95961904Y-83357142D01*
X96009523Y-83261904D01*
X96009523Y-82452380D01*
X97009523Y-83452380D02*
X96438095Y-83452380D01*
X96723809Y-83452380D02*
X96723809Y-82452380D01*
X96628571Y-82595238D01*
X96533333Y-82690476D01*
X96438095Y-82738095D01*
%TO.C,C5*%
D15*
X65988333Y-82053571D02*
X65927857Y-82114047D01*
X65746428Y-82174523D01*
X65625476Y-82174523D01*
X65444047Y-82114047D01*
X65323095Y-81993095D01*
X65262619Y-81872142D01*
X65202142Y-81630238D01*
X65202142Y-81448809D01*
X65262619Y-81206904D01*
X65323095Y-81085952D01*
X65444047Y-80965000D01*
X65625476Y-80904523D01*
X65746428Y-80904523D01*
X65927857Y-80965000D01*
X65988333Y-81025476D01*
X67137380Y-80904523D02*
X66532619Y-80904523D01*
X66472142Y-81509285D01*
X66532619Y-81448809D01*
X66653571Y-81388333D01*
X66955952Y-81388333D01*
X67076904Y-81448809D01*
X67137380Y-81509285D01*
X67197857Y-81630238D01*
X67197857Y-81932619D01*
X67137380Y-82053571D01*
X67076904Y-82114047D01*
X66955952Y-82174523D01*
X66653571Y-82174523D01*
X66532619Y-82114047D01*
X66472142Y-82053571D01*
%TO.C,BR1*%
X64997952Y-74910285D02*
X65179380Y-74970761D01*
X65239857Y-75031238D01*
X65300333Y-75152190D01*
X65300333Y-75333619D01*
X65239857Y-75454571D01*
X65179380Y-75515047D01*
X65058428Y-75575523D01*
X64574619Y-75575523D01*
X64574619Y-74305523D01*
X64997952Y-74305523D01*
X65118904Y-74366000D01*
X65179380Y-74426476D01*
X65239857Y-74547428D01*
X65239857Y-74668380D01*
X65179380Y-74789333D01*
X65118904Y-74849809D01*
X64997952Y-74910285D01*
X64574619Y-74910285D01*
X66570333Y-75575523D02*
X66147000Y-74970761D01*
X65844619Y-75575523D02*
X65844619Y-74305523D01*
X66328428Y-74305523D01*
X66449380Y-74366000D01*
X66509857Y-74426476D01*
X66570333Y-74547428D01*
X66570333Y-74728857D01*
X66509857Y-74849809D01*
X66449380Y-74910285D01*
X66328428Y-74970761D01*
X65844619Y-74970761D01*
X67779857Y-75575523D02*
X67054142Y-75575523D01*
X67417000Y-75575523D02*
X67417000Y-74305523D01*
X67296047Y-74486952D01*
X67175095Y-74607904D01*
X67054142Y-74668380D01*
%TD*%
M02*
